<svg width="105" height="68" viewBox="0 0 105 68" fill="none" xmlns="http://www.w3.org/2000/svg">
<path d="M91.1014 1.71558H10.3472C7.75058 1.71558 5.64557 3.81952 5.64557 6.41487V49.6865C5.64557 52.2819 7.75058 54.3858 10.3472 54.3858H91.1014C93.6981 54.3858 95.8031 52.2819 95.8031 49.6865V6.41487C95.8031 3.81952 93.6981 1.71558 91.1014 1.71558Z" stroke="#8D9BA6" stroke-width="2" stroke-miterlimit="10"/>
<path d="M2.42364 54.3859H100.237V57.3581C100.237 60.2349 97.8986 62.5726 95.0203 62.5726H6.43319C3.55491 62.5726 1.216 60.2349 1.216 57.3581V55.5929C1.216 54.925 1.75538 54.3859 2.42364 54.3859Z" stroke="#8D9BA6" stroke-width="2" stroke-miterlimit="10"/>
<path d="M50.7243 4.79289C51.1277 4.79289 51.4546 4.46608 51.4546 4.06295C51.4546 3.65981 51.1277 3.33301 50.7243 3.33301C50.321 3.33301 49.994 3.65981 49.994 4.06295C49.994 4.46608 50.321 4.79289 50.7243 4.79289Z" fill="#8D9BA6"/>
<path d="M91.1635 6.68689H10.2852C9.53918 6.68689 8.93439 7.29137 8.93439 8.03704V49.3002C8.93439 50.0458 9.53918 50.6503 10.2852 50.6503H91.1635C91.9096 50.6503 92.5143 50.0458 92.5143 49.3002V8.03704C92.5143 7.29137 91.9096 6.68689 91.1635 6.68689Z" fill="white" stroke="#8D9BA6" stroke-miterlimit="10"/>
<path d="M42.7625 54.3859H58.6957V56.4516C58.6957 57.0957 58.1706 57.6205 57.5262 57.6205H43.9367C43.2923 57.6205 42.7673 57.0957 42.7673 56.4516V54.3859H42.7625Z" fill="#8D9BA6"/>
<path d="M100.066 21.4956H84.9725C82.9163 21.4956 81.2494 23.1617 81.2494 25.2169V62.5679C81.2494 64.6231 82.9163 66.2892 84.9725 66.2892H100.066C102.122 66.2892 103.789 64.6231 103.789 62.5679V25.2169C103.789 23.1617 102.122 21.4956 100.066 21.4956Z" fill="white" stroke="#3A8DE3" stroke-width="2" stroke-miterlimit="10"/>
<path d="M96.3902 23.5662H88.6384C88.0558 23.5662 87.5836 24.0382 87.5836 24.6205C87.5836 25.2028 88.0558 25.6749 88.6384 25.6749H96.3902C96.9728 25.6749 97.4451 25.2028 97.4451 24.6205C97.4451 24.0382 96.9728 23.5662 96.3902 23.5662Z" fill="#3A8DE3"/>
</svg>
