<svg width="24" height="24" viewBox="0 0 24 24" fill="none" xmlns="http://www.w3.org/2000/svg">
<path d="M9.87322 17.7744L14.5016 13.1458C14.9276 12.7197 14.9276 12.0289 14.5016 11.6029C14.0755 11.1768 13.3848 11.1768 12.9588 11.6029L8.33044 16.2315C7.90442 16.6576 7.90442 17.3483 8.33044 17.7744C8.75647 18.2004 9.4472 18.2004 9.87322 17.7744Z" fill="#899CA8"/>
<path d="M14.5003 11.2285L9.87197 6.5999C9.44595 6.17385 8.75522 6.17385 8.32919 6.5999C7.90317 7.02596 7.90317 7.71673 8.32919 8.14278L12.9575 12.7714C13.3836 13.1975 14.0743 13.1975 14.5003 12.7714C14.9263 12.3454 14.9263 11.6546 14.5003 11.2285Z" fill="#899CA8"/>
</svg>
