<svg width="133" height="51" viewBox="0 0 133 51" fill="none" xmlns="http://www.w3.org/2000/svg">
<g clip-path="url(#clip0_10311_55268)">
<path d="M118.87 16.0356V22.6556H118.72C118.05 21.3856 116.72 20.5056 115.19 20.5056H113.71C111.5 20.5056 109.71 22.2956 109.71 24.5056V28.5156C109.71 30.7256 111.5 32.5156 113.71 32.5156H115.19C116.7 32.5156 118.01 31.6656 118.69 30.4256H118.8L118.88 32.2956H120.32V16.0356H118.88H118.87ZM115.71 31.0156H114.23C112.57 31.0156 111.23 29.6756 111.23 28.0156V25.0156C111.23 23.3556 112.57 22.0156 114.23 22.0156H115.71C117.37 22.0156 118.71 23.3556 118.71 25.0156V28.0156C118.71 29.6756 117.37 31.0156 115.71 31.0156Z" fill="#222222"/>
<path d="M104.05 20.7256H103.4C102.85 20.7256 102.4 21.1756 102.4 21.7256V32.3056H104.05V22.0356H108.55V20.7256H104.05Z" fill="#222222"/>
<path d="M98.5799 32.3056L98.5599 24.0856C98.5599 22.1156 96.9599 20.5056 94.9799 20.5056H93.0299C91.0599 20.5056 89.4499 22.1056 89.4499 24.0856H90.9399C91.0799 22.7956 92.1599 21.7956 93.4899 21.7956H94.5099C95.9299 21.7956 97.0899 22.9456 97.0899 24.3756V25.3856H92.6499C90.6799 25.3856 89.0699 26.9856 89.0699 28.9656C89.0699 30.9456 90.6699 32.5456 92.6499 32.5456H94.0899C95.2799 32.5456 96.3199 31.9556 96.9699 31.0656H97.0799V32.3256H98.5599L98.5799 32.3056ZM94.1299 31.2356H92.9299C91.6699 31.2356 90.6599 30.2156 90.6599 28.9656C90.6599 27.7156 91.6799 26.6956 92.9299 26.6956H97.0999V28.2756C97.0999 29.9156 95.7699 31.2456 94.1299 31.2456V31.2356Z" fill="#222222"/>
<path d="M84.81 28.0156C84.81 29.6756 83.47 31.0156 81.81 31.0156H81.05C79.39 31.0156 78.05 29.6756 78.05 28.0156V20.7256H76.53V28.5256C76.53 30.7356 78.32 32.5256 80.53 32.5256H81.3C82.81 32.5256 84.12 31.6756 84.8 30.4356H84.91L84.99 32.3056H86.43V20.7256H84.84L84.82 28.0156H84.81Z" fill="#222222"/>
<path d="M71.5 30.1456H66.36C65.87 30.1456 65.48 29.7956 65.48 29.3056C65.48 28.8156 65.87 28.4256 66.36 28.4256H67.79H69.51C71.44 28.4256 73.01 26.8556 73.01 24.9256V24.0056C73.01 22.8956 72.48 21.9156 71.68 21.2756V20.4656H74.1V19.1556H71.56C71.01 19.1556 70.56 19.6056 70.56 20.1556V20.6856C70.23 20.5756 69.88 20.5056 69.51 20.5056H67.79C65.86 20.5056 64.29 22.0756 64.29 24.0056V24.9256C64.29 26.1056 64.88 27.1456 65.77 27.7756C64.86 27.8156 64.13 28.5556 64.13 29.4756C64.13 30.2356 64.64 30.8556 65.33 31.0556C64.17 31.4156 63.33 32.3856 63.33 33.5356V33.8656C63.33 35.3256 64.67 36.5056 66.33 36.5056H71.48C73.14 36.5056 74.48 35.1656 74.48 33.5056V33.1256C74.48 31.4656 73.14 30.1256 71.48 30.1256L71.5 30.1456ZM65.81 23.7256C65.81 22.6656 66.71 21.8056 67.81 21.8056H69.52C70.62 21.8056 71.52 22.6656 71.52 23.7256V25.2056C71.52 26.2656 70.62 27.1256 69.52 27.1256H67.81C66.71 27.1256 65.81 26.2656 65.81 25.2056V23.7256ZM71.43 35.0856H66.42C65.45 35.0856 64.66 34.2956 64.66 33.3256C64.66 32.3556 65.45 31.5656 66.42 31.5656H71.43C72.4 31.5656 73.19 32.3556 73.19 33.3256C73.19 34.2956 72.4 35.0856 71.43 35.0856Z" fill="#222222"/>
<path d="M61.88 17.3556V16.0356H58.52C57.97 16.0356 57.52 16.4856 57.52 17.0356V20.7256H55.51V22.0756H57.52V32.3056H58.99V22.0756H61.62V20.7256H58.99V17.3556H61.88Z" fill="#222222"/>
<path d="M52.59 26.8456H54V25.5056C54 22.7456 51.76 20.5056 49 20.5056H48.54C45.78 20.5056 43.54 22.7456 43.54 25.5056V27.2556C43.54 30.1556 45.91 32.5156 48.8 32.5156H49.26C51.54 32.5156 53.44 30.9856 54.04 28.9056H52.32C51.67 30.5456 50.18 31.6256 48.23 31.1756C46.28 30.7256 45.11 28.9756 45.11 27.0656V26.8456H52.59ZM48.85 21.7456C50.91 21.7456 52.39 23.4156 52.39 25.4856V25.5756H45.11V25.4856C45.11 23.4256 46.78 21.7456 48.85 21.7456Z" fill="#222222"/>
<path d="M39.16 16.0356V22.6556H39.01C38.34 21.3856 37.01 20.5056 35.48 20.5056H34C31.79 20.5056 30 22.2956 30 24.5056V28.5156C30 30.7256 31.79 32.5156 34 32.5156H35.48C36.99 32.5156 38.3 31.6656 38.98 30.4256H39.09L39.17 32.2956H40.61V16.0356H39.17H39.16ZM36 31.0156H34.52C32.86 31.0156 31.52 29.6756 31.52 28.0156V25.0156C31.52 23.3556 32.86 22.0156 34.52 22.0156H36C37.66 22.0156 39 23.3556 39 25.0156V28.0156C39 29.6756 37.66 31.0156 36 31.0156Z" fill="#222222"/>
<path d="M23.5802 12V17.8489L18.5171 14.9245L12 18.6868V32.8929L18.5119 36.6552L23.5749 33.7307V36.7447L21.125 38.1622L22.5739 39L25.0237 37.5826V25.3683L18.5119 21.606L13.4488 24.5304V19.5193L18.5119 16.5948L23.5749 19.5193V21.1844L25.0237 22.0222V12.8378L23.5749 12H23.5802ZM13.4488 32.055V27.0439L18.5119 29.9684L23.5749 27.0439V32.055L18.5119 34.9795L13.4488 32.055ZM22.8531 25.7898L18.5119 28.298L14.1706 25.7898L18.5119 23.2816L22.8531 25.7898Z" fill="#222222"/>
</g>
<defs>
<clipPath id="clip0_10311_55268">
<rect width="109" height="27" fill="white" transform="translate(12 12)"/>
</clipPath>
</defs>
</svg>
