<svg width="18" height="18" viewBox="0 0 18 18" fill="none" xmlns="http://www.w3.org/2000/svg">
<path d="M9.5 9.49945C10.0523 9.49945 10.5 9.94717 10.5 10.4995C10.5 10.8692 10.2984 11.1907 10 11.3637V12.4995C10 12.7756 9.77614 12.9995 9.5 12.9995C9.22386 12.9995 9 12.7756 9 12.4995V11.3637C8.70157 11.1907 8.5 10.8692 8.5 10.4995C8.5 9.94717 8.94772 9.49945 9.5 9.49945Z" fill="#14BC6E"/>
<path fill-rule="evenodd" clip-rule="evenodd" d="M11 2.99945C12.3807 2.99945 13.5 4.11874 13.5 5.49945V7.40375C14.396 7.92264 15 8.88956 15 9.99945V13.4995C15 14.3279 14.3284 14.9995 13.5 14.9995H5.5C4.67157 14.9995 4 14.3279 4 13.4995V9.99945C4 8.88956 4.604 7.92264 5.5 7.40375V5.49945C5.5 4.11874 6.61929 2.99945 8 2.99945H11ZM7 7.99945C5.89543 7.99945 5 8.89488 5 9.99945V13.4995C5 13.7756 5.22386 13.9995 5.5 13.9995H13.5C13.7761 13.9995 14 13.7756 14 13.4995V9.99945C14 8.89488 13.1046 7.99945 12 7.99945H7ZM8 3.99945C7.17157 3.99945 6.5 4.67102 6.5 5.49945V7.04047C6.66258 7.01319 6.82967 6.99945 7 6.99945H12C12.1703 6.99945 12.3374 7.01319 12.5 7.04047V5.49945C12.5 4.67102 11.8284 3.99945 11 3.99945H8Z" fill="#14BC6E"/>
</svg>
