<svg width="33" height="33" viewBox="0 0 33 33" fill="none" xmlns="http://www.w3.org/2000/svg">
<path d="M1.98535 1.5L11.6338 1.5C11.8886 1.5 12.1201 1.71226 12.1201 2.00879V11.8086C12.12 12.105 11.8885 12.3174 11.6338 12.3174H1.98535C1.73074 12.3173 1.50014 12.1049 1.5 11.8086L1.5 2.00879C1.5 1.71233 1.73066 1.5001 1.98535 1.5Z" stroke="white" stroke-width="2"/>
<path d="M21.3657 1.5L31.0142 1.5C31.2689 1.5 31.5005 1.71226 31.5005 2.00879V11.8086C31.5003 12.105 31.2688 12.3174 31.0142 12.3174H21.3657C21.1111 12.3173 20.8805 12.1049 20.8804 11.8086V2.00879C20.8804 1.71233 21.111 1.5001 21.3657 1.5Z" stroke="white" stroke-width="2"/>
<path d="M1.98535 20.6831H11.6338C11.8886 20.6831 12.1201 20.8954 12.1201 21.1919V30.9917C12.12 31.2881 11.8885 31.5005 11.6338 31.5005H1.98535C1.73074 31.5004 1.50014 31.288 1.5 30.9917L1.5 21.1919C1.5 20.8954 1.73066 20.6832 1.98535 20.6831Z" stroke="white" stroke-width="2"/>
<path d="M27.969 25.7793H26.9469C26.5295 25.7793 26.1908 25.4353 26.1908 25.0114V23.9735C26.1908 23.5496 26.5295 23.2056 26.9469 23.2056H27.969C28.3864 23.2056 28.7251 23.5496 28.7251 23.9735V25.0114C28.7251 25.4353 28.3864 25.7793 27.969 25.7793Z" fill="white"/>
<path d="M31.1586 28.9775H30.135C29.7176 28.9775 29.3804 28.6335 29.3804 28.2096V27.1717C29.3804 26.7478 29.7176 26.4038 30.135 26.4038H31.1586C31.5745 26.4038 31.9132 26.7478 31.9132 27.1717V28.2096C31.9132 28.6335 31.5745 28.9775 31.1586 28.9775Z" fill="white"/>
<path d="M27.969 32.1742H26.9469C26.5295 32.1742 26.1908 31.8302 26.1908 31.4063V30.3684C26.1908 29.9445 26.5295 29.6005 26.9469 29.6005H27.969C28.3864 29.6005 28.7251 29.9445 28.7251 30.3684V31.4063C28.7251 31.8302 28.3864 32.1742 27.969 32.1742Z" fill="white"/>
<path d="M7.32165 8.19528H6.2996C5.88216 8.19528 5.54346 7.85132 5.54346 7.42741V6.38951C5.54346 5.9656 5.88216 5.62164 6.2996 5.62164H7.32165C7.73908 5.62164 8.07778 5.9656 8.07778 6.38951V7.42741C8.07778 7.85132 7.73908 8.19528 7.32165 8.19528Z" fill="white"/>
<path d="M7.32165 27.6891H6.2996C5.88216 27.6891 5.54346 27.3452 5.54346 26.9213V25.8834C5.54346 25.4595 5.88216 25.1155 6.2996 25.1155H7.32165C7.73908 25.1155 8.07778 25.4595 8.07778 25.8834V26.9213C8.07778 27.3452 7.73908 27.6891 7.32165 27.6891Z" fill="white"/>
<path d="M24.6979 26.4023H24.0026H23.6758H20.4864C20.0689 26.4023 19.7302 26.7463 19.7302 27.1702V28.2081C19.7302 28.632 20.0689 28.976 20.4864 28.976H23.6758H24.0026H24.6979C25.1153 28.976 25.454 28.632 25.454 28.2081V27.1702C25.454 26.7463 25.1153 26.4023 24.6979 26.4023Z" fill="white"/>
<path d="M31.1584 16.6448H30.2582H30.1364H26.9469C26.5295 16.6448 26.1908 16.9888 26.1908 17.4127V18.4506C26.1908 18.8745 26.5295 19.2185 26.9469 19.2185H29.3802V21.8147C29.3802 22.2387 29.7189 22.5826 30.1364 22.5826H31.1584C31.5759 22.5826 31.9146 22.2387 31.9146 21.8147V18.4506V18.1398V17.4127C31.9146 16.9888 31.5759 16.6448 31.1584 16.6448Z" fill="white"/>
<path d="M24.698 20.009H22.2647V17.4142C22.2647 16.9903 21.926 16.6463 21.5086 16.6463H20.9366H20.4865H17.3387C16.9212 16.6463 16.5825 16.9903 16.5825 17.4142V18.4521C16.5825 18.876 16.9212 19.22 17.3387 19.22H19.7304V20.7768V21.0891V21.8147V25.0129C19.7304 25.4368 20.0691 25.7808 20.4865 25.7808H21.5086C21.926 25.7808 22.2647 25.4368 22.2647 25.0129V22.5826H24.698C25.1154 22.5826 25.4542 22.2386 25.4542 21.8147V20.7768C25.4542 20.3529 25.1154 20.009 24.698 20.009Z" fill="white"/>
<path d="M18.3607 32.1742H17.3387C16.9212 32.1742 16.5825 31.8302 16.5825 31.4063V30.3684C16.5825 29.9445 16.9212 29.6005 17.3387 29.6005H18.3607C18.7781 29.6005 19.1168 29.9445 19.1168 30.3684V31.4063C19.1168 31.8302 18.7781 32.1742 18.3607 32.1742Z" fill="white"/>
<path d="M26.702 8.19528H25.6784C25.261 8.19528 24.9238 7.85132 24.9238 7.42741V6.38951C24.9238 5.9656 25.261 5.62164 25.6784 5.62164H26.702C27.1179 5.62164 27.4566 5.9656 27.4566 6.38951V7.42741C27.4566 7.85132 27.1179 8.19528 26.702 8.19528Z" fill="white"/>
</svg>
