<svg width="40" height="44" viewBox="0 0 40 44" fill="none" xmlns="http://www.w3.org/2000/svg">
<g clip-path="url(#clip0_11650_405)">
<path d="M28.7064 0V9.31499L20.5277 4.65749L10 10.6493V33.2738L20.5192 39.2656L28.6979 34.6081V39.4083L24.7405 41.6657L27.0809 43L31.0383 40.7426V21.2902L20.5192 15.2984L12.3404 19.9559V11.9752L20.5192 7.31772L28.6979 11.9752V14.627L31.0383 15.9614V1.33431L28.6979 0H28.7064ZM12.3404 31.9395V23.9588L20.5192 28.6163L28.6979 23.9588V31.9395L20.5192 36.597L12.3404 31.9395ZM27.5319 21.9616L20.5192 25.9561L13.5064 21.9616L20.5192 17.967L27.5319 21.9616Z" fill="#0C8CE0"/>
</g>
<defs>
<clipPath id="clip0_11650_405">
<rect width="21" height="43" fill="white" transform="translate(10)"/>
</clipPath>
</defs>
</svg>
