<svg width="121" height="128" viewBox="0 0 121 128" fill="none" xmlns="http://www.w3.org/2000/svg">
<g clip-path="url(#clip0_12153_32293)">
<path d="M53.7235 13.8936H140.872" stroke="#CBD3D8" stroke-width="1.3617" stroke-linecap="round"/>
<circle cx="58.4895" cy="9.12751" r="2.04255" fill="#CBD3D8"/>
<circle cx="65.298" cy="9.12751" r="2.04255" fill="#CBD3D8"/>
<circle cx="73.4682" cy="9.12751" r="2.04255" fill="#CBD3D8"/>
</g>
<rect x="52.3618" y="4.3617" width="44.2766" height="76.2766" rx="5.44681" stroke="#CBD3D8" stroke-width="2.7234"/>
<g clip-path="url(#clip1_12153_32293)">
<rect x="23.0001" y="29" width="47" height="79" rx="6.80851" fill="white"/>
<path d="M25.7235 39.8938H112.872" stroke="#899CA8" stroke-width="1.3617" stroke-linecap="round"/>
<circle cx="30.4895" cy="35.128" r="2.04255" fill="#899CA8"/>
<circle cx="37.298" cy="35.128" r="2.04255" fill="#899CA8"/>
<circle cx="45.4682" cy="35.128" r="2.04255" fill="#899CA8"/>
<path d="M41.7959 80.7059C41.1015 77.8594 40.7059 74.6086 40.7059 71.1557C40.7059 67.2098 41.2225 63.5277 42.112 60.4118M49.8881 60.4118C50.7776 63.5277 51.2942 67.2098 51.2942 71.1557C51.2942 74.6086 50.8986 77.8594 50.2042 80.7059M35.4118 71H56.5883M61.0001 71C61.0001 79.2843 54.2843 86 46.0001 86C37.7158 86 31.0001 79.2843 31.0001 71C31.0001 62.7157 37.7158 56 46.0001 56C54.2843 56 61.0001 62.7157 61.0001 71Z" stroke="#899CA8" stroke-width="2.7234" stroke-linecap="round"/>
</g>
<rect x="24.3618" y="30.3617" width="44.2766" height="76.2766" rx="5.44681" stroke="#899CA8" stroke-width="2.7234"/>
<rect x="77.0001" y="70" width="8" height="28" fill="#F9F9F9"/>
<path fill-rule="evenodd" clip-rule="evenodd" d="M81.3182 67C77.9292 67 75.1819 69.7343 75.1819 73.1071V87.5608C70.5137 88.5038 67.0001 92.6114 67.0001 97.5357V103.8C67.0001 106.77 67.9325 109.666 69.6671 112.083L75.7729 120.59C77.3087 122.73 79.7883 124 82.4307 124H98.2117C101.148 124 103.859 122.434 105.316 119.897L110.114 111.541C111.35 109.387 112 106.95 112 104.471V97.5357C112 92.0789 107.685 87.625 102.266 87.3688C101.142 86.1126 99.5049 85.3214 97.6819 85.3214C96.5883 85.3214 95.5615 85.6061 94.6723 86.1052C93.5819 84.4096 91.6729 83.2857 89.5001 83.2857C88.7829 83.2857 88.0944 83.4082 87.4546 83.6332V73.1071C87.4546 69.7343 84.7073 67 81.3182 67ZM87.4546 89.3929C87.4546 90.5172 86.5388 91.4286 85.4092 91.4286C84.2795 91.4286 83.3637 90.5172 83.3637 89.3929V73.1071C83.3637 71.9828 82.4479 71.0714 81.3182 71.0714C80.1886 71.0714 79.2728 71.9828 79.2728 73.1071V99.5714C79.2728 100.696 78.357 101.607 77.2273 101.607C76.0977 101.607 75.1819 100.696 75.1819 99.5714V91.7761C72.7985 92.6145 71.091 94.8766 71.091 97.5357V103.8C71.091 105.921 71.757 107.99 72.996 109.716L79.1018 118.224C79.8697 119.294 81.1095 119.929 82.4307 119.929H98.2117C99.6798 119.929 101.035 119.146 101.764 117.877L106.562 109.521C107.445 107.983 107.909 106.242 107.909 104.471V97.5357C107.909 94.8766 106.202 92.6145 103.818 91.7761V93.4643C103.818 94.5886 102.902 95.5 101.773 95.5C100.643 95.5 99.7273 94.5886 99.7273 93.4643V91.4286C99.7273 90.3043 98.8116 89.3929 97.6819 89.3929C96.5522 89.3929 95.6364 90.3043 95.6364 91.4286C95.6364 92.5529 94.7206 93.4643 93.591 93.4643C92.4613 93.4643 91.5455 92.5529 91.5455 91.4286V89.3929C91.5455 88.2686 90.6297 87.3571 89.5001 87.3571C88.3704 87.3571 87.4546 88.2686 87.4546 89.3929Z" fill="#0C8CE0"/>
<path d="M50.0001 83.3829C60.2128 81.7943 80.6384 73.4425 80.6384 52.7446" stroke="#0C8CE0" stroke-width="1.3617" stroke-linecap="round" stroke-dasharray="2.72 5.45"/>
<defs>
<clipPath id="clip0_12153_32293">
<rect x="51.0001" y="3" width="47" height="79" rx="6.80851" fill="white"/>
</clipPath>
<clipPath id="clip1_12153_32293">
<rect x="23.0001" y="29" width="47" height="79" rx="6.80851" fill="white"/>
</clipPath>
</defs>
</svg>
