<svg xmlns="http://www.w3.org/2000/svg" width="61" height="61" viewBox="0 0 61 61" fill="none">
    <path fill-rule="evenodd" clip-rule="evenodd" d="M19.6293 41.8992C19.9657 41.1475 20.8522 40.8089 21.6092 41.143L22.8781 41.703C27.7306 43.8446 33.2695 43.8446 38.1219 41.703L39.3908 41.143C40.1478 40.8089 41.0343 41.1475 41.3707 41.8992C41.7072 42.6509 41.3663 43.5312 40.6092 43.8653L39.3403 44.4253C33.7122 46.9092 27.2878 46.9092 21.6597 44.4253L20.3908 43.8653C19.6338 43.5312 19.2928 42.6509 19.6293 41.8992Z" fill="#0C8CE0"/>
    <path fill-rule="evenodd" clip-rule="evenodd" d="M31.7556 20.0511C32.584 20.0511 33.2556 20.718 33.2556 21.5406V31.8829C33.2556 34.1706 31.6437 36.1464 29.39 36.6211L28.0669 36.8998C27.2565 37.0705 26.4602 36.5566 26.2883 35.7518C26.1164 34.9471 26.634 34.1563 27.4444 33.9856L28.7675 33.7069C29.6351 33.5242 30.2556 32.7636 30.2556 31.8829V21.5406C30.2556 20.718 30.9272 20.0511 31.7556 20.0511Z" fill="#0C8CE0"/>
    <path fill-rule="evenodd" clip-rule="evenodd" d="M18.2 20.1616C19.0285 20.1616 19.7 20.8285 19.7 21.6511V22.5448C19.7 23.3675 19.0285 24.0343 18.2 24.0343C17.3716 24.0343 16.7 23.3675 16.7 22.5448V21.6511C16.7 20.8285 17.3716 20.1616 18.2 20.1616Z" fill="#0C8CE0"/>
    <path fill-rule="evenodd" clip-rule="evenodd" d="M42.5001 20.1616C43.3285 20.1616 44.0001 20.8285 44.0001 21.6511V22.5448C44.0001 23.3675 43.3285 24.0343 42.5001 24.0343C41.6716 24.0343 41.0001 23.3675 41.0001 22.5448V21.6511C41.0001 20.8285 41.6716 20.1616 42.5001 20.1616Z" fill="#0C8CE0"/>
    <path fill-rule="evenodd" clip-rule="evenodd" d="M18.0445 3.47903C10.0118 3.47903 3.5 9.94528 3.5 17.9218V18.3411C3.5 19.1637 2.82843 19.8306 2 19.8306C1.17157 19.8306 0.5 19.1637 0.5 18.3411V17.9218C0.5 8.3 8.35493 0.5 18.0445 0.5C18.8729 0.5 19.5445 1.16688 19.5445 1.98951C19.5445 2.81215 18.8729 3.47903 18.0445 3.47903Z" fill="#0C8CE0"/>
    <path fill-rule="evenodd" clip-rule="evenodd" d="M18.0445 57.521C10.0118 57.521 3.5 51.0547 3.5 43.0782V42.6589C3.5 41.8363 2.82843 41.1694 2 41.1694C1.17157 41.1694 0.5 41.8363 0.5 42.6589V43.0782C0.5 52.7 8.35493 60.5 18.0445 60.5C18.8729 60.5 19.5445 59.8331 19.5445 59.0105C19.5445 58.1879 18.8729 57.521 18.0445 57.521Z" fill="#0C8CE0"/>
    <path fill-rule="evenodd" clip-rule="evenodd" d="M42.9555 3.47903C50.9882 3.47903 57.5 9.94528 57.5 17.9218V18.3411C57.5 19.1637 58.1716 19.8306 59 19.8306C59.8284 19.8306 60.5 19.1637 60.5 18.3411V17.9218C60.5 8.3 52.6451 0.5 42.9555 0.5C42.1271 0.5 41.4555 1.16688 41.4555 1.98951C41.4555 2.81215 42.1271 3.47903 42.9555 3.47903Z" fill="#0C8CE0"/>
    <path fill-rule="evenodd" clip-rule="evenodd" d="M42.9555 57.521C50.9882 57.521 57.5 51.0547 57.5 43.0782V42.6589C57.5 41.8363 58.1716 41.1694 59 41.1694C59.8284 41.1694 60.5 41.8363 60.5 42.6589V43.0782C60.5 52.7 52.6451 60.5 42.9555 60.5C42.1271 60.5 41.4555 59.8331 41.4555 59.0105C41.4555 58.1879 42.1271 57.521 42.9555 57.521Z" fill="#0C8CE0"/>
</svg>