<svg xmlns="http://www.w3.org/2000/svg" width="61" height="61" viewBox="0 0 61 61" fill="none">
    <path d="M47.9486 7.91C47.7085 7.91 47.4685 7.85 47.2584 7.73C41.4972 4.76 36.5162 3.5 30.545 3.5C24.6038 3.5 18.9626 4.91 13.8316 7.73C13.1114 8.12 12.2113 7.85 11.7912 7.13C11.4011 6.41 11.6711 5.48 12.3913 5.09C17.9724 2.06 24.0937 0.5 30.545 0.5C36.9363 0.5 42.5175 1.91 48.6387 5.06C49.3889 5.45 49.6589 6.35 49.2688 7.07C48.9988 7.61 48.4887 7.91 47.9486 7.91ZM5.00979 23.66C4.70972 23.66 4.40966 23.57 4.13961 23.39C3.44947 22.91 3.29944 21.98 3.77953 21.29C6.75014 17.09 10.5309 13.79 15.0318 11.48C24.4538 6.62 36.5162 6.59 45.9682 11.45C50.4691 13.76 54.2499 17.03 57.2205 21.2C57.7006 21.86 57.5505 22.82 56.8604 23.3C56.1703 23.78 55.2401 23.63 54.76 22.94C52.0594 19.16 48.6387 16.19 44.5879 14.12C35.9761 9.71 24.9639 9.71 16.3821 14.15C12.3013 16.25 8.88058 19.25 6.18003 23.03C5.93998 23.45 5.48988 23.66 5.00979 23.66ZM23.7636 59.87C23.3735 59.87 22.9835 59.72 22.7134 59.42C20.1029 56.81 18.6926 55.13 16.6822 51.5C14.6117 47.81 13.5315 43.31 13.5315 38.48C13.5315 29.57 21.1531 22.31 30.515 22.31C39.8769 22.31 47.4985 29.57 47.4985 38.48C47.4985 39.32 46.8383 39.98 45.9982 39.98C45.158 39.98 44.4979 39.32 44.4979 38.48C44.4979 31.22 38.2266 25.31 30.515 25.31C22.8034 25.31 16.5321 31.22 16.5321 38.48C16.5321 42.8 17.4923 46.79 19.3227 50.03C21.2431 53.48 22.5634 54.95 24.8738 57.29C25.444 57.89 25.444 58.82 24.8738 59.42C24.5438 59.72 24.1537 59.87 23.7636 59.87ZM45.278 54.32C41.7073 54.32 38.5566 53.42 35.9761 51.65C31.5052 48.62 28.8347 43.7 28.8347 38.48C28.8347 37.64 29.4948 36.98 30.335 36.98C31.1751 36.98 31.8353 37.64 31.8353 38.48C31.8353 42.71 33.9957 46.7 37.6565 49.16C39.7869 50.6 42.2774 51.29 45.278 51.29C45.9982 51.29 47.1984 51.2 48.3987 50.99C49.2088 50.84 49.989 51.38 50.139 52.22C50.2891 53.03 49.7489 53.81 48.9088 53.96C47.1984 54.29 45.6981 54.32 45.278 54.32ZM39.2468 60.5C39.1268 60.5 38.9767 60.47 38.8567 60.44C34.0857 59.12 30.9651 57.35 27.6944 54.14C23.4936 49.97 21.1831 44.42 21.1831 38.48C21.1831 33.62 25.3239 29.66 30.425 29.66C35.526 29.66 39.6669 33.62 39.6669 38.48C39.6669 41.69 42.4574 44.3 45.9081 44.3C49.3589 44.3 52.1494 41.69 52.1494 38.48C52.1494 27.17 42.3974 17.99 30.395 17.99C21.8732 17.99 14.0716 22.73 10.5609 30.08C9.39068 32.51 8.79056 35.36 8.79056 38.48C8.79056 40.82 9.0006 44.51 10.801 49.31C11.101 50.09 10.711 50.96 9.93079 51.23C9.15063 51.53 8.28045 51.11 8.0104 50.36C6.5401 46.43 5.81995 42.53 5.81995 38.48C5.81995 34.88 6.51009 31.61 7.86037 28.76C11.8512 20.39 20.703 14.96 30.395 14.96C44.0478 14.96 55.15 25.49 55.15 38.45C55.15 43.31 51.0092 47.27 45.9081 47.27C40.8071 47.27 36.6663 43.31 36.6663 38.45C36.6663 35.24 33.8757 32.63 30.425 32.63C26.9743 32.63 24.1837 35.24 24.1837 38.45C24.1837 43.58 26.1641 48.38 29.7949 51.98C32.6454 54.8 35.376 56.36 39.6069 57.53C40.417 57.74 40.8671 58.58 40.6571 59.36C40.507 60.05 39.8769 60.5 39.2468 60.5Z" fill="#0C8CE0"/>
</svg>