<svg width="12" height="12" viewBox="0 0 12 12" fill="none" xmlns="http://www.w3.org/2000/svg">
<path d="M2.16972 9.366L10.83 4.366C11.3083 4.08985 11.4721 3.47826 11.196 2.99997C10.9199 2.52168 10.3083 2.3578 9.82997 2.63395L1.16972 7.63395C0.691428 7.91009 0.527553 8.52168 0.803695 8.99997C1.07984 9.47826 1.69143 9.64214 2.16972 9.366Z" fill="#CBD3D8"/>
<path d="M10.8303 7.634L2.17003 2.634C1.69173 2.35786 1.08014 2.52174 0.804 3.00003C0.527858 3.47832 0.691733 4.08991 1.17003 4.36605L9.83028 9.36605C10.3086 9.6422 10.9202 9.47832 11.1963 9.00003C11.4724 8.52174 11.3086 7.91015 10.8303 7.634Z" fill="#CBD3D8"/>
<path d="M5 1L5 11C5 11.5523 5.44772 12 6 12C6.55228 12 7 11.5523 7 11L7 1C7 0.447715 6.55228 0 6 0C5.44772 0 5 0.447715 5 1Z" fill="#CBD3D8"/>
</svg>
