<svg width="40" height="40" viewBox="0 0 40 40" fill="none" xmlns="http://www.w3.org/2000/svg">
<path d="M30.2846 27.7138L12.2855 9.71471C11.5755 9.00467 10.4243 9.00467 9.71423 9.71471C9.00419 10.4248 9.00419 11.576 9.71423 12.286L27.7133 30.2851C28.4234 30.9951 29.5746 30.9951 30.2846 30.2851C30.9947 29.575 30.9947 28.4238 30.2846 27.7138Z" fill="#899CA8"/>
<path d="M12.2862 30.2846L30.2853 12.2855C30.9953 11.5755 30.9953 10.4243 30.2853 9.71422C29.5752 9.00417 28.424 9.00417 27.714 9.71422L9.7149 27.7133C9.00485 28.4233 9.00485 29.5746 9.7149 30.2846C10.4249 30.9946 11.5761 30.9946 12.2862 30.2846Z" fill="#899CA8"/>
</svg>
