<svg width="40" height="40" viewBox="0 0 40 40" fill="none" xmlns="http://www.w3.org/2000/svg">
<path d="M30.9091 10.9091L9.09089 10.9091C8.08673 10.9091 7.27271 11.7231 7.27271 12.7273C7.27271 13.7314 8.08673 14.5455 9.09089 14.5455L30.9091 14.5455C31.9132 14.5455 32.7273 13.7314 32.7273 12.7273C32.7273 11.7231 31.9132 10.9091 30.9091 10.9091Z" fill="#899CA8"/>
<path d="M23.6363 18.1818L9.09089 18.1818C8.08673 18.1818 7.27271 18.9958 7.27271 20C7.27271 21.0042 8.08673 21.8182 9.09089 21.8182L23.6363 21.8182C24.6405 21.8182 25.4545 21.0042 25.4545 20C25.4545 18.9958 24.6405 18.1818 23.6363 18.1818Z" fill="#899CA8"/>
<path d="M23.6363 25.4545H9.09089C8.08673 25.4545 7.27271 26.2686 7.27271 27.2727C7.27271 28.2769 8.08673 29.0909 9.09089 29.0909H23.6363C24.6405 29.0909 25.4545 28.2769 25.4545 27.2727C25.4545 26.2686 24.6405 25.4545 23.6363 25.4545Z" fill="#899CA8"/>
</svg>
